<svg id="Layer_1" data-name="Layer 1" xmlns="http://www.w3.org/2000/svg" viewBox="0 0 545.93 199.76"><defs><style>.cls-1{fill:#b01f2d;}</style></defs><title>Cayenta Logo</title><path class="cls-1" d="M85.56,191.14a46.25,46.25,0,0,1-15-3.14c-5.65-2-11.26-4.09-16.33-7.36-4.86-3.13-8.93-7-11.37-12.37C40,162,40,155.49,41.79,148.95c2-7.46,6.32-13.64,11.33-19.39,5.17-5.94,11.37-10.76,17.24-15.94,11.78-10.4,25.08-18.76,37.71-28a544.93,544.93,0,0,1,55.24-35c5.77-3.24,11.9-5.82,17.84-8.77,2.53-1.26,8.9-.06,11,2A17.38,17.38,0,0,1,196.37,51q1.2,3.7,2.16,7.47c1.09,4.31-.53,7.82-3.4,10.93a73.24,73.24,0,0,1-11.88,9.86c-3.33,2.34-6.6,4.79-10.12,6.82a16.39,16.39,0,0,1-12.38,1.85,10.8,10.8,0,0,1-2.44-1c-1.95-1-2.35-2-2-4.2.7-4.32,2.67-8.17,4.43-12.1.24-.55.54-1.07.73-1.64a4.16,4.16,0,0,0,.07-1.08,3.35,3.35,0,0,0-1,.2c-2.93,1.63-6,3.11-8.75,5C144.41,78,137,83,129.8,88.25a216,216,0,0,0-29.82,27,182.75,182.75,0,0,0-24.32,32c-1.94,3.3-3.71,6.73-4.17,10.63a9.71,9.71,0,0,0,.91,5.24,4.11,4.11,0,0,0,4,2.51A32.09,32.09,0,0,0,86.6,163.8C102.08,159.07,116.5,152,130.51,144c10.65-6.07,21.26-12.23,31.75-18.6,4.46-2.71,8.55-6,12.8-9.08,2.89-2.07,5.79-4.14,8.65-6.25.73-.54,1.55-.64,2-.07s0,1.3-.55,1.85Q162.58,133.93,140,156q-10.71,10.41-21.63,20.59a53.72,53.72,0,0,1-21.23,12.63,32.14,32.14,0,0,1-4.41,1.07C90.33,190.68,87.94,190.88,85.56,191.14Z" transform="translate(-40.57 -23.48)"/><path class="cls-1" d="M458.52,79.93c-2.81-.15-5.31-.4-7.82-.41-9.72,0-19.43,0-29.15,0-1.8,0-3.59.2-5.39.23-.55,0-1.46.47-1.54-.53A1.5,1.5,0,0,1,416,77.55c2.34-.49,4.63-1.27,7-1.61,6.83-1,13.68-1.9,20.54-2.68,6.15-.7,12.33-1.18,18.5-1.73a2,2,0,0,0,1.77-1.15c5.18-9.23,10.26-18.52,15.66-27.63,3.52-5.94,7.49-11.62,11.31-17.37a4.75,4.75,0,0,1,6.37-1.14,9.88,9.88,0,0,1,2.2,2.33c6.39,8.93,6.63,18.52,3,28.51a46.16,46.16,0,0,1-6.07,11.25c-.28.38-.55.78-1,1.4a4.89,4.89,0,0,0,1.47.39c8.27-.8,16.54-1.67,24.81-2.44,6.21-.58,12.42-1.16,18.64-1.54s12.3-.62,18.46-.64c4.75,0,9.5.4,14.25.67a3.39,3.39,0,0,1,1.43.51c4.56,2.66,7.74,6.61,10.36,11.09.34.59.63,1.2,1,1.79a4.32,4.32,0,0,1,.52,4c-.54,1.41-.75,1.78-2.27,1.7-4.55-.24-9.1-.55-13.65-.75-7.63-.34-15.26-.65-22.9-.9-13.87-.44-27.74-.93-41.61-1.18-6.55-.12-13.11.25-19.67.45a2,2,0,0,0-1.24.73c-11.8,14.27-22.91,29.07-33.53,44.24C437.14,146.16,424,167.1,411,188.15a79.35,79.35,0,0,1-11,14.64,5.27,5.27,0,0,1-1.57.75c-.05-.66-.35-1.43-.12-2Q401.06,195,404,188.5c8.47-18.67,18.19-36.72,27.51-55,8.28-16.22,16.4-32.52,24.6-48.77.39-.78.91-1.5,1.31-2.28S458.09,80.92,458.52,79.93Z" transform="translate(-40.57 -23.48)"/><path class="cls-1" d="M490,161.44a15.09,15.09,0,0,0-2.1.71c-5,2.55-10,5.19-15,7.68-6.18,3.06-12.64,5.13-19.66,5a5.1,5.1,0,0,1-3-1.19,37.33,37.33,0,0,1-8.44-9.11c-.78-1.14-.49-3.16-.34-4.75a21,21,0,0,1,3.39-8.76c3-4.88,5.82-9.85,9.06-14.55a49,49,0,0,1,31.33-20.84,50.45,50.45,0,0,1,13.36-.91c2.95.18,5.92.08,8.88.06a1.22,1.22,0,0,0,.94-.49c1.67-3.77,3.4-7.54,3-11.82a3.15,3.15,0,0,0-.79-1.76A7.44,7.44,0,0,0,503,98.81c-3,.73-5.9,1.7-8.85,2.54-.68.19-1.4.26-2.4.44.22-.56.26-1,.51-1.25,5.81-5.38,12.27-9.64,20.25-11a32.43,32.43,0,0,1,8-.36c3.62.31,6.26,2.62,8.53,5.3a13.26,13.26,0,0,1,2.92,8.32,126.61,126.61,0,0,1-.93,20c-.83,7.14-1.63,14.29-2.7,21.39a157.25,157.25,0,0,1-5.71,24.46,3.85,3.85,0,0,1-1,1.46,93.62,93.62,0,0,1-17.17,13q-8.15,5.06-16.33,10.05a12.44,12.44,0,0,1-5.89,1.8c-1,.06-1.67-.36-1.69-1.36a10.39,10.39,0,0,1,.27-3.4c2.22-6.74,4.55-13.45,6.82-20.17.93-2.75,1.79-5.52,2.69-8.29Zm15-41.52c-1.21.19-2.19.29-3.14.5-5.77,1.31-10.22,4.72-14.16,8.94-4.22,4.52-7.47,9.76-10.93,14.84a70.53,70.53,0,0,0-7.08,12.19,13,13,0,0,0-1.07,8.17c.47,2.05.54,2.1,2.51,1.55.42-.12.84-.26,1.26-.39,7.57-2.36,14-6.64,20.08-11.63a5.38,5.38,0,0,0,1.58-2.15C496.6,145,499.17,138,501.61,131,502.85,127.47,503.81,123.8,505,119.92Z" transform="translate(-40.57 -23.48)"/><path class="cls-1" d="M209.74,144.37c-3.45,2.23-6.95,4.38-10.34,6.69-9.62,6.56-18.67,13.87-27.64,21.27a19.89,19.89,0,0,1-5,2.66,3.15,3.15,0,0,1-2.43-.08,80.17,80.17,0,0,1-8.9-5.36c-3-2.21-3.79-5.28-2.54-9a48.07,48.07,0,0,1,5.78-11c10.52-15.91,25.33-26.49,42.51-34.06a101.17,101.17,0,0,1,19.45-6.28A2.72,2.72,0,0,0,223,107a42.8,42.8,0,0,0,1.12-6.59,71.87,71.87,0,0,0-.38-9.55c-.21-2.06-.6-2.11-2.72-1.91-5.41.51-10.19,2.83-15,5.09-2.06,1-4.19,1.78-6.22,2.8-1.8.91-3.5.37-5.2-.14-.41-.12-1-.68-1-1,0-.69.2-1.7.67-2,5.87-3.63,11.55-7.64,18.11-10,6.38-2.3,12.85-2.93,19.31-.29a17.34,17.34,0,0,1,9.78,9.68,72.21,72.21,0,0,1,5.32,28.77,96,96,0,0,1-3.37,24.38,7.75,7.75,0,0,1-4,5.23c-11.45,5.78-21.86,13.24-32.67,20.06a42.87,42.87,0,0,1-4.39,2.46,2.34,2.34,0,0,1-1.85,0c-.72-.39-.77-1.17-.46-2q4.78-13.1,9.51-26.22c.13-.37.25-.74.38-1.12Zm11.15-29.76c-.54.22-.69.26-.83.34-1,.55-2,1.08-2.91,1.67a80.29,80.29,0,0,0-20.59,18.67,83,83,0,0,0-9.51,14.79,3.37,3.37,0,0,0-.14,1.08A3.46,3.46,0,0,0,188,151a39.37,39.37,0,0,0,3.63-1.84q10.78-6.48,21.51-13a2.38,2.38,0,0,0,.85-1.08c.86-2.06,1.77-4.11,2.46-6.23C218,124.22,219.35,119.57,220.89,114.61Z" transform="translate(-40.57 -23.48)"/><path class="cls-1" d="M271.28,142.29c1.62-3.59,3.37-7.13,4.84-10.78,5.31-13.1,9.32-26.66,14-40,2.64-7.57,5.79-15,8.76-22.41.93-2.33,2.84-2.9,5-1.73a35.91,35.91,0,0,1,13,11c1.44,2.05,2.61,4.26,2.41,6.87a12.6,12.6,0,0,1-.8,3.47c-4.13,10.74-9.69,20.76-15.67,30.55-4.19,6.85-8.15,13.87-12.78,20.42a270.17,270.17,0,0,1-34.26,39.72,169.08,169.08,0,0,1-37.51,27.26c-6,3.17-11.7,6.9-17.59,10.28A60.43,60.43,0,0,1,186.38,223a9.62,9.62,0,0,1-3,.19c-5.89-.31-11.68-1.15-17.15-3.54a5.22,5.22,0,0,1-.76-.34c-2-1.27-1.86-2.31,0-3.54,2.39-1.55,5.09-1.52,7.71-1.87,14.59-2,28.8-5.28,42.21-11.58,11.89-5.59,21.82-13.68,30.44-23.49A106.45,106.45,0,0,0,261,156.76a2.68,2.68,0,0,0,.12-2.26c-1.25-3.87-3-7.68-3.54-11.65-2.12-14.48-5.95-28.6-8.7-42.94q-1.21-6.29-2.23-12.61a1.92,1.92,0,0,1,.6-1.49,7,7,0,0,1,4.88-1.69,56.29,56.29,0,0,1,9,1.08c2,.45,3.33,2.27,4.48,4a14.81,14.81,0,0,1,2.48,8c.1,3.67-.15,7.35-.18,11,0,5.59-.19,11.19.05,16.77.18,4.25.81,8.49,1.39,12.72a30.58,30.58,0,0,0,1.29,4.45Z" transform="translate(-40.57 -23.48)"/><path class="cls-1" d="M362.29,153.4a13.1,13.1,0,0,1,.82-2.66c2.51-4.4,3.21-9.34,4.17-14.17,1.41-7.12,2.75-14.27,3.75-21.46a118.39,118.39,0,0,0,.68-28.94A78,78,0,0,0,367.31,67c-.43-1.14-.17-1.67,1-1.62a13.17,13.17,0,0,1,4.34.65c6,2.41,10.76,6.54,14.89,11.41a68.7,68.7,0,0,1,5,6.85,7.12,7.12,0,0,1,1,3.34c.24,3.92-.83,7.67-1.72,11.44-.16.66-.34,1.31-.45,2a7.56,7.56,0,0,0,.06,1.34c1.61-1.49,2.95-2.79,4.35-4a45.2,45.2,0,0,1,16.25-9.2,4.52,4.52,0,0,1,4.82,1.3,18.25,18.25,0,0,1,3.35,4.19,66,66,0,0,1,6.93,19.18c.94,5.35.92,10.68-1,15.83a19.76,19.76,0,0,1-2.54,4.43C411.84,150.3,398.24,164.73,382,176.6c-2.32,1.7-4.75,3.24-7.16,4.81a2.25,2.25,0,0,1-1.23.33c-1.29,0-1.71-.91-1-2,3.94-6.11,8-12.15,11.78-18.36,6.86-11.24,12.79-23,16.81-35.54A103.58,103.58,0,0,0,404.39,114a43.87,43.87,0,0,0,.3-8.23,3.81,3.81,0,0,0-.75-1.86,2.37,2.37,0,0,0-2.93-1.15c-4,1.14-7,3.72-9.59,6.86-4.15,5.07-7.19,10.84-10.28,16.57-5,9.19-10.33,18.12-17.36,25.94-.35.39-.7.77-1.05,1.15C362.67,153.3,362.58,153.3,362.29,153.4Z" transform="translate(-40.57 -23.48)"/><path class="cls-1" d="M360.24,144.75c-4.15,4.26-8.18,8.64-12.47,12.76A121.89,121.89,0,0,1,322,176.56a15.82,15.82,0,0,1-5.84,1.6,41.21,41.21,0,0,1-6.92.32c-3.94-.17-6.52-2.63-8.74-5.63-3.93-5.31-4.61-11.17-3.45-17.53,2.83-15.57,9.76-29.2,19.21-41.7a141.48,141.48,0,0,1,16.33-18.34c5.7-5.31,12.07-9.72,19.55-12.26,2.9-1,4.34-.48,6,1.89a37.83,37.83,0,0,1,5.63,12.73,33.78,33.78,0,0,1-1.26,21.16,12.66,12.66,0,0,1-2.39,3.39c-5,5.73-11.51,9.33-18.56,11.92-4.6,1.69-9.3,3.13-14,4.64a2.35,2.35,0,0,0-1.73,1.48,75,75,0,0,0-2.32,7.27c-.73,3.26-1.16,6.59-1.63,9.9a6.4,6.4,0,0,0,.24,2.6c.75,2.56,1.91,3.67,4.8,3.2a28.66,28.66,0,0,0,10.85-4.28c7.23-4.62,14.36-9.41,21.53-14.13l.57-.39Zm-7.68-51.5h-.44c-11.21,11.53-18.12,25.57-23.6,40.52,2.19-1.12,4.55-2.07,6.28-3.69a78.74,78.74,0,0,0,12.43-14.56c3.74-5.8,6-12.06,5.88-19A21.52,21.52,0,0,0,352.56,93.25Z" transform="translate(-40.57 -23.48)"/></svg>